<svg id="Layer_1" data-name="Layer 1" xmlns="http://www.w3.org/2000/svg" viewBox="0 0 720 720"><title>icons</title><path d="M380.32,41c-178.93,0-324,145.08-324,324,0,151.83,104.54,278.86,245.48,314a47.38,47.38,0,0,1-2.48-15.75V607.89H258.6c-22.16,0-41.87-9.53-51.43-27.25-10.61-19.68-12.45-49.78-38.75-68.2-7.8-6.13-1.86-13.12,7.13-12.18,16.61,4.7,30.38,16.1,43.34,33S237.87,554,262,554a308.57,308.57,0,0,0,45.66-3.27c8.85-22.49,24.16-43.2,42.87-53C242.62,486.68,191.13,433,191.13,360.13c0-31.37,13.37-61.72,36.07-87.29-7.45-25.38-16.82-77.14,2.87-96.85,48.54,0,77.89,31.49,84.94,40a244.88,244.88,0,0,1,157.57.06c7-8.46,36.34-40,85-40,19.76,19.74,10.28,71.72,2.75,97,22.57,25.52,35.85,55.78,35.85,87.1,0,72.82-51.4,126.47-159.13,137.62,29.64,15.47,51.27,58.94,51.27,91.7v73.81a48,48,0,0,1-.94,7.24C613.63,626.25,704.32,506.37,704.32,365,704.32,186.07,559.25,41,380.32,41Z"/></svg>