<svg id="Layer_1" data-name="Layer 1" xmlns="http://www.w3.org/2000/svg" viewBox="0 0 720 720"><title>icons</title><path d="M606.86,36H113.14A77.17,77.17,0,0,0,36,113.14V606.86A77.17,77.17,0,0,0,113.14,684H606.86A77.17,77.17,0,0,0,684,606.86V113.14A77.17,77.17,0,0,0,606.86,36ZM236.57,282.86V576H144V282.86ZM144,197.54c0-21.6,18.51-38.11,46.29-38.11s45.2,16.51,46.28,38.11c0,21.6-17.28,39-46.28,39C162.51,236.57,144,219.14,144,197.54ZM576,576H483.43V421.71c0-30.85-15.43-61.71-54-62.33h-1.24c-37.33,0-52.76,31.79-52.76,62.33V576H282.86V282.86h92.57v39.49s29.78-39.49,89.64-39.49C526.32,282.86,576,325,576,410.3Z"/></svg>