<svg id="Layer_1" data-name="Layer 1" xmlns="http://www.w3.org/2000/svg" viewBox="0 0 720 720"><title>icons</title><path d="M672.8,159A265.6,265.6,0,0,1,596.44,180a133.21,133.21,0,0,0,58.44-73.55,266.44,266.44,0,0,1-84.44,32.27,133,133,0,0,0-230,90.94,134.12,134.12,0,0,0,3.44,30.29C233.45,254.39,135.5,201.46,69.91,121A133.17,133.17,0,0,0,111.06,298.5a132.5,132.5,0,0,1-60.22-16.62v1.67A133,133,0,0,0,157.49,413.89a133.07,133.07,0,0,1-35.05,4.66,135.38,135.38,0,0,1-25-2.36,133.09,133.09,0,0,0,124.18,92.33A268.2,268.2,0,0,1,24.8,563.58a376.43,376.43,0,0,0,203.79,59.71c244.53,0,378.22-202.57,378.22-378.24q0-8.64-.38-17.2A270.52,270.52,0,0,0,672.8,159Z"/></svg>